<?xml version="1.0" encoding="UTF-8"?>
<svg id="FM_color" xmlns="http://www.w3.org/2000/svg" viewBox="0 0 144 144">
  <defs>
    <style>
      .cls-1 {
        fill: #fff;
      }

      .cls-2 {
        fill: #0082fc;
      }
    </style>
  </defs>
  <path class="cls-2" d="M108.82,124.59h.83c.33,0,.59-.08.77-.23.19-.16.29-.39.29-.67,0-.6-.37-.93-1.06-.93h-.83v1.84ZM110.54,126.95l-1.06-1.87h-.65v1.87h-.62v-4.68h1.58c.22,0,.43.04.62.11.19.07.35.17.49.3.13.13.24.28.32.45.08.17.12.36.12.55,0,.31-.09.58-.27.82-.19.24-.42.41-.72.5l-.2.06,1.09,1.89h-.7ZM109.58,120.78c-.53,0-1.03.1-1.48.3-.46.2-.86.47-1.2.82-.34.35-.61.76-.81,1.23-.19.47-.29.98-.29,1.52s.1,1.06.29,1.53c.19.47.46.89.81,1.23.34.34.75.62,1.2.82.46.2.96.3,1.48.3s1.03-.1,1.48-.3c.45-.2.86-.47,1.2-.82.34-.34.62-.76.81-1.23.19-.47.29-.99.29-1.53s-.1-1.06-.29-1.52c-.19-.47-.46-.88-.81-1.23-.34-.35-.75-.62-1.2-.82-.46-.2-.96-.3-1.48-.3M109.58,129.09c-.61,0-1.19-.12-1.72-.35-.53-.24-1.01-.56-1.41-.96-.4-.4-.72-.87-.95-1.41-.23-.54-.35-1.12-.35-1.73s.12-1.18.35-1.72c.23-.54.55-1.01.95-1.42.4-.4.87-.72,1.41-.96.53-.23,1.11-.35,1.72-.35s1.2.12,1.74.35c.54.23,1.02.55,1.42.96.4.4.72.88.96,1.42.23.53.35,1.11.35,1.72s-.12,1.19-.35,1.73c-.23.54-.56,1.02-.96,1.42-.4.4-.88.72-1.42.96-.54.23-1.12.35-1.74.35"/>
  <ellipse class="cls-1" cx="71.56" cy="72.61" rx="38.1" ry="51.98"/>
  <path class="cls-2" d="M72,129.35c25.04,0,42.3-11.89,42.3-57.35S97.05,14.65,72,14.65s-42.31,11.89-42.31,57.35,17.27,57.35,42.31,57.35M66.51,72l-20.5-20.55,5.94-5.94,16.33,16.34V22.69l29.7,29.7-19.61,19.61,19.61,19.61-29.7,29.7v-39.15l-16.33,16.34-5.94-5.94,20.5-20.55ZM76.64,101.03l9.48-9.48-9.48-9.48v18.96ZM76.64,42.97l9.48,9.48-9.48,9.48v-18.96Z"/>
</svg>